HIERARCHY
ROOT joint_Root
{
	OFFSET 0.0 0.0 0.0
	CHANNELS 6 Xposition Yposition Zposition Zrotation Xrotation Yrotation 
	JOINT Hips
	{
		OFFSET 4.5925 91.4895 -427.239
		CHANNELS 6 Xposition Yposition Zposition Zrotation Xrotation Yrotation 
		JOINT Spine
		{
			OFFSET 15.7357 0.0 0.0
			CHANNELS 6 Xposition Yposition Zposition Zrotation Xrotation Yrotation 
			JOINT Chest
			{
				OFFSET 8.98455 -0.406207 0.0
				CHANNELS 6 Xposition Yposition Zposition Zrotation Xrotation Yrotation 
				JOINT Neck
				{
					OFFSET 16.3773 0.0 0.0
					CHANNELS 6 Xposition Yposition Zposition Zrotation Xrotation Yrotation 
					JOINT Head
					{
						OFFSET 6.45672 0.0 0.0
						CHANNELS 6 Xposition Yposition Zposition Zrotation Xrotation Yrotation 
						End Site
						{
							OFFSET 0.0 0.0 0.0
						}
					}
				}
				JOINT Shoulder_L
				{
					OFFSET 12.9942 -0.242716 4.98039
					CHANNELS 6 Xposition Yposition Zposition Zrotation Xrotation Yrotation 
					JOINT UpperArm_L
					{
						OFFSET 5.34809 0.0 0.0
						CHANNELS 6 Xposition Yposition Zposition Zrotation Xrotation Yrotation 
						JOINT LowerArm_L
						{
							OFFSET 24.3286 1.87007e-05 0.0
							CHANNELS 6 Xposition Yposition Zposition Zrotation Xrotation Yrotation 
							JOINT Hand_L
							{
								OFFSET 22.2916 0.0 0.0
								CHANNELS 6 Xposition Yposition Zposition Zrotation Xrotation Yrotation 
								End Site
								{
									OFFSET 0.0 0.0 0.0
								}
							}
						}
					}
				}
				JOINT Shoulder_R
				{
					OFFSET 12.9945 -0.242716 -4.98039
					CHANNELS 6 Xposition Yposition Zposition Zrotation Xrotation Yrotation 
					JOINT UpperArm_R
					{
						OFFSET -5.34813 0.0 0.0
						CHANNELS 6 Xposition Yposition Zposition Zrotation Xrotation Yrotation 
						JOINT LowerArm_R
						{
							OFFSET -24.3289 0.000322201 0.0
							CHANNELS 6 Xposition Yposition Zposition Zrotation Xrotation Yrotation 
							JOINT Hand_R
							{
								OFFSET -22.2915 -0.000108084 0.0
								CHANNELS 6 Xposition Yposition Zposition Zrotation Xrotation Yrotation 
								End Site
								{
									OFFSET 0.0 0.0 0.0
								}
							}
						}
					}
				}
			}
		}
		JOINT UpperLeg_L
		{
			OFFSET -2.19248 -6.46944 0.0
			CHANNELS 6 Xposition Yposition Zposition Zrotation Xrotation Yrotation 
			JOINT LowerLeg_L
			{
				OFFSET 39.0811 0.0 -1.23785e-05
				CHANNELS 6 Xposition Yposition Zposition Zrotation Xrotation Yrotation 
				JOINT Foot_L
				{
					OFFSET 40.9854 0.0 -1.26872e-05
					CHANNELS 6 Xposition Yposition Zposition Zrotation Xrotation Yrotation 
					JOINT Toes_L
					{
						OFFSET 11.7543 0.0 0.0
						CHANNELS 6 Xposition Yposition Zposition Zrotation Xrotation Yrotation 
						End Site
						{
							OFFSET 0.0 0.0 0.0
						}
					}
				}
			}
		}
		JOINT UpperLeg_R
		{
			OFFSET -2.19251 6.46944 0.0
			CHANNELS 6 Xposition Yposition Zposition Zrotation Xrotation Yrotation 
			JOINT LowerLeg_R
			{
				OFFSET -39.0811 -0.00228153 -0.0401928
				CHANNELS 6 Xposition Yposition Zposition Zrotation Xrotation Yrotation 
				JOINT Foot_R
				{
					OFFSET -40.9854 0.0 0.0
					CHANNELS 6 Xposition Yposition Zposition Zrotation Xrotation Yrotation 
					JOINT Toes_R
					{
						OFFSET -11.7543 0.0 0.0
						CHANNELS 6 Xposition Yposition Zposition Zrotation Xrotation Yrotation 
						End Site
						{
							OFFSET 0.0 0.0 0.0
						}
					}
				}
			}
		}
	}
}
MOTION
Frames:	7
Frame Time:	0.0333333
0.000000 0.000000 0.000000 0.000000 0.000000 -0.000000 -2.396650 90.789300 -4.000480 88.524400 -1.796840 11.363900 15.735700 0.000005 -0.000001 88.605200 76.919300 -88.714600 8.984550 -0.406207 -0.000000 18.387700 -0.634760 -0.116702 16.377300 -0.000001 -0.000001 5.533750 -2.829640 1.823160 6.456720 -0.000001 -0.000000 -15.547400 -3.119070 3.118920 12.994200 -0.242716 4.980390 -90.851100 5.182360 -80.660400 5.348090 -0.000007 -0.000001 -62.592800 29.709800 -26.530000 24.328600 0.000019 0.000005 12.278600 24.025300 -28.127700 22.291600 -0.000001 0.000005 9.812860 5.262680 1.095380 12.994500 -0.242716 -4.980390 89.491600 9.471360 -86.913400 -5.348130 -0.000001 -0.000004 -60.588200 30.564700 -23.742400 -24.328900 0.000322 -0.000009 4.386180 8.327070 -27.912900 -22.291500 -0.000108 -0.000004 16.842400 5.387670 -2.540730 -2.192480 -6.469440 -0.000000 -172.904000 -12.059000 -3.016100 39.081100 -0.000007 -0.000012 -0.130669 0.204708 32.551200 40.985400 -0.000006 -0.000013 -0.066520 6.764750 -67.822900 11.754300 -0.000000 0.000003 -0.000222 -0.002019 -16.653500 -2.192510 6.469440 -0.000001 176.118000 22.862500 179.097000 -39.081100 -0.002282 -0.040193 -0.171588 0.290549 31.044800 -40.985400 0.000008 0.000006 5.497200 15.288100 -68.865800 -11.754300 -0.000006 -0.000006 -0.001857 -0.026912 -17.667400
0.000000 0.000000 0.000000 0.000000 0.000000 -0.000000 -2.419820 90.785600 -4.026690 88.509800 -1.751280 11.349800 15.735700 0.000005 -0.000001 88.537700 76.916800 -88.650800 8.984550 -0.406207 -0.000000 18.392000 -0.665403 -0.118879 16.377300 -0.000001 -0.000001 5.494790 -2.832930 1.861400 6.456720 -0.000001 -0.000000 -15.540500 -3.097320 3.122070 12.994200 -0.242716 4.980390 -90.842600 5.110380 -80.624300 5.348090 -0.000007 -0.000001 -62.689400 29.319300 -26.464400 24.328600 0.000019 0.000005 12.612600 23.566400 -29.233700 22.291600 -0.000001 0.000005 9.835280 5.269980 0.897584 12.994500 -0.242716 -4.980390 89.471500 9.482190 -86.795100 -5.348130 -0.000001 -0.000004 -60.812600 29.903600 -23.555500 -24.328900 0.000322 -0.000009 4.598460 8.174270 -29.501400 -22.291500 -0.000108 -0.000004 17.328900 5.387290 -2.529380 -2.192480 -6.469440 -0.000000 -172.886000 -11.987000 -3.072360 39.081100 -0.000007 -0.000012 -0.134169 0.209998 32.575000 40.985400 -0.000006 -0.000013 -0.086582 6.773850 -67.808400 11.754300 -0.000000 0.000003 -0.000231 -0.002090 -16.656100 -2.192510 6.469440 -0.000001 176.166000 22.866700 179.057000 -39.081100 -0.002282 -0.040193 -0.171169 0.289690 31.059000 -40.985400 0.000008 0.000006 5.505540 15.236200 -68.861600 -11.754300 -0.000006 -0.000006 -0.001838 -0.026674 -17.657700
0.000000 0.000000 0.000000 0.000000 0.000000 -0.000000 -2.438420 90.787200 -4.052940 88.514900 -1.712050 11.355500 15.735700 0.000005 -0.000001 88.488700 76.910100 -88.606000 8.984550 -0.406207 -0.000000 18.404800 -0.688100 -0.123632 16.377300 -0.000001 -0.000001 5.504970 -2.845140 1.848330 6.456720 -0.000001 -0.000000 -15.545000 -3.112910 3.145310 12.994200 -0.242716 4.980390 -90.853100 5.144890 -80.572200 5.348090 -0.000007 -0.000001 -62.281500 29.149300 -26.623800 24.328600 0.000019 0.000005 13.285800 23.263800 -30.872900 22.291600 -0.000001 0.000005 9.774070 5.265900 1.008710 12.994500 -0.242716 -4.980390 89.452000 9.478630 -86.676000 -5.348130 -0.000001 -0.000004 -60.989600 29.043600 -23.379300 -24.328900 0.000322 -0.000009 4.919270 8.085100 -31.470400 -22.291500 -0.000108 -0.000004 17.643100 5.390760 -2.638950 -2.192480 -6.469440 -0.000000 -172.887000 -11.970400 -3.088080 39.081100 -0.000007 -0.000012 -0.131565 0.205998 32.565500 40.985400 -0.000006 -0.000013 -0.088269 6.805980 -67.779900 11.754300 -0.000000 0.000003 -0.000228 -0.002064 -16.655100 -2.192510 6.469440 -0.000001 176.169000 22.897800 179.050000 -39.081100 -0.002282 -0.040193 -0.170495 0.288590 31.057400 -40.985400 0.000008 0.000006 5.517160 15.231800 -68.850100 -11.754300 -0.000006 -0.000006 -0.001852 -0.026851 -17.664900
0.000000 0.000000 0.000000 0.000000 0.000000 -0.000000 -2.447950 90.789700 -4.086050 88.533600 -1.684120 11.371400 15.735700 0.000005 -0.000001 88.477500 76.900600 -88.606900 8.984550 -0.406207 -0.000000 18.423700 -0.694724 -0.146674 16.377300 -0.000001 -0.000001 5.544520 -2.849480 1.853340 6.456720 -0.000001 -0.000000 -15.567300 -3.110430 3.165630 12.994200 -0.242716 4.980390 -90.853100 5.098180 -80.487700 5.348090 -0.000007 -0.000001 -61.981800 28.711700 -27.005000 24.328600 0.000019 0.000005 13.735100 22.687800 -32.362400 22.291600 -0.000001 0.000005 10.022600 5.272130 0.840802 12.994500 -0.242716 -4.980390 89.424600 9.452280 -86.500400 -5.348130 -0.000001 -0.000004 -60.975600 28.251000 -23.415800 -24.328900 0.000322 -0.000009 5.293450 8.007050 -33.634200 -22.291500 -0.000108 -0.000004 18.203800 5.394300 -2.752830 -2.192480 -6.469440 -0.000000 -172.903000 -11.967500 -3.090040 39.081100 -0.000007 -0.000012 -0.133081 0.208531 32.545500 40.985400 -0.000006 -0.000013 -0.091211 6.808520 -67.743200 11.754300 -0.000000 0.000003 -0.000222 -0.002019 -16.653500 -2.192510 6.469440 -0.000001 176.157000 22.921800 179.044000 -39.081100 -0.002282 -0.040193 -0.168852 0.285829 31.060400 -40.985400 0.000008 0.000006 5.531350 15.237300 -68.835900 -11.754300 -0.000006 -0.000006 -0.001785 -0.025996 -17.630200
0.000000 0.000000 0.000000 0.000000 0.000000 -0.000000 -2.453050 90.793900 -4.130020 88.520100 -1.640400 11.393900 15.735700 0.000005 -0.000001 88.368900 76.898800 -88.497900 8.984550 -0.406207 -0.000000 18.426000 -0.743474 -0.138050 16.377300 -0.000001 -0.000001 5.651560 -2.817110 1.833880 6.456720 -0.000001 -0.000000 -15.565600 -3.089640 3.158960 12.994200 -0.242716 4.980390 -90.856600 5.065230 -80.388800 5.348090 -0.000007 -0.000001 -61.497800 28.216900 -27.504200 24.328600 0.000019 0.000005 14.386300 22.211200 -34.158300 22.291600 -0.000001 0.000005 10.183600 5.272660 0.826290 12.994500 -0.242716 -4.980390 89.406200 9.353410 -86.351000 -5.348130 -0.000001 -0.000004 -60.875800 27.447900 -23.620300 -24.328900 0.000322 -0.000009 5.891250 8.168050 -35.993900 -22.291500 -0.000108 -0.000004 18.810900 5.393870 -2.739220 -2.192480 -6.469440 -0.000000 -172.894000 -11.925700 -3.110740 39.081100 -0.000007 -0.000012 -0.133414 0.209120 32.537100 40.985400 -0.000006 -0.000013 -0.094203 6.815070 -67.696100 11.754300 -0.000000 0.000003 -0.000234 -0.002116 -16.657000 -2.192510 6.469440 -0.000001 176.170000 22.960600 179.051000 -39.081100 -0.002282 -0.040193 -0.168353 0.285268 31.036500 -40.985400 0.000008 0.000006 5.536430 15.234800 -68.797500 -11.754300 -0.000006 -0.000006 -0.001847 -0.026782 -17.662100
0.000000 0.000000 0.000000 0.000000 0.000000 -0.000000 -2.454830 90.792400 -4.190740 88.525400 -1.585220 11.420300 15.735700 0.000005 -0.000001 88.270700 76.897300 -88.403300 8.984550 -0.406207 -0.000000 18.427700 -0.787895 -0.137928 16.377300 -0.000001 -0.000001 5.739210 -2.818820 1.822130 6.456720 -0.000001 -0.000000 -15.507400 -3.054850 3.122220 12.994200 -0.242716 4.980390 -90.855900 5.035230 -80.339700 5.348090 -0.000007 -0.000001 -60.915000 27.564900 -28.112200 24.328600 0.000019 0.000005 15.360100 21.975700 -36.280600 22.291600 -0.000001 0.000005 10.385600 5.273830 0.794389 12.994500 -0.242716 -4.980390 89.384100 9.249520 -86.173700 -5.348130 -0.000001 -0.000004 -60.613200 26.613000 -24.009600 -24.328900 0.000322 -0.000009 6.543690 8.307380 -38.450100 -22.291500 -0.000108 -0.000004 19.319400 5.396470 -2.823020 -2.192480 -6.469440 -0.000000 -172.913000 -11.883700 -3.143650 39.081100 -0.000007 -0.000012 -0.131633 0.206219 32.550900 40.985400 -0.000006 -0.000013 -0.086311 6.826730 -67.658200 11.754300 -0.000000 0.000003 -0.000214 -0.001957 -16.651200 -2.192510 6.469440 -0.000001 176.160000 23.006600 179.027000 -39.081100 -0.002282 -0.040193 -0.168747 0.285671 31.058800 -40.985400 0.000008 0.000006 5.539310 15.220400 -68.767900 -11.754300 -0.000006 -0.000006 -0.001866 -0.027022 -17.671900
0.000000 0.000000 0.000000 0.000000 0.000000 -0.000000 -2.464050 90.798200 -4.235290 88.534400 -1.619890 11.487600 15.735700 0.000005 -0.000001 88.303400 76.881200 -88.450300 8.984550 -0.406207 -0.000000 18.460200 -0.775472 -0.168334 16.377300 -0.000001 -0.000001 5.813540 -2.827150 1.807920 6.456720 -0.000001 -0.000000 -15.523500 -3.056540 3.137830 12.994200 -0.242716 4.980390 -90.858600 5.023180 -80.287900 5.348090 -0.000007 -0.000001 -60.363800 26.617000 -28.755500 24.328600 0.000019 0.000005 16.330200 21.484600 -38.659000 22.291600 -0.000001 0.000005 10.662500 5.274640 0.772511 12.994500 -0.242716 -4.980390 89.361600 9.176640 -86.003100 -5.348130 -0.000001 -0.000004 -60.215700 25.716500 -24.552300 -24.328900 0.000322 -0.000009 7.146060 8.275820 -41.061100 -22.291500 -0.000108 -0.000004 19.754400 5.396600 -2.827600 -2.192480 -6.469440 -0.000000 -172.885000 -11.956500 -3.084030 39.081100 -0.000007 -0.000012 -0.130163 0.204188 32.516400 40.985400 -0.000006 -0.000013 -0.073150 6.907140 -67.608800 11.754300 -0.000000 0.000003 -0.000235 -0.002122 -16.657200 -2.192510 6.469440 -0.000001 176.151000 22.964700 179.076000 -39.081100 -0.002282 -0.040193 -0.169892 0.287811 31.037800 -40.985400 0.000008 0.000006 5.539700 15.194500 -68.729200 -11.754300 -0.000006 -0.000006 -0.001867 -0.027037 -17.672500
